<svg width="32" height="34" viewBox="0 0 32 34" fill="none" xmlns="http://www.w3.org/2000/svg">
<path d="M2.88828 27.8619H1.65245C0.739623 27.8619 0 27.1223 0 26.2095V4.58253C0 3.66971 0.739623 2.93008 1.65245 2.93008H2.88828C3.8011 2.93008 4.54073 3.66971 4.54073 4.58253V26.2095C4.54073 27.1223 3.8011 27.8619 2.88828 27.8619Z" fill="black"/>
<path d="M12.9965 28.1319L9.20004 28.9043C8.17643 29.1118 7.21835 28.3301 7.21835 27.2846V3.50898C7.21835 2.46352 8.17643 1.68177 9.20004 1.8893L12.9965 2.66013C13.7673 2.81617 14.3197 3.49338 14.3197 4.27981V26.5122C14.3197 27.2971 13.7673 27.9758 12.9965 28.1319Z" fill="black"/>
<path d="M26.3815 28.2411L19.1803 30.6706C18.1099 31.0326 16.9989 30.2353 16.9989 29.104V1.65369C16.9989 0.520846 18.113 -0.276511 19.185 0.0901794L26.3861 2.54779C27.0555 2.77561 27.5049 3.40444 27.5049 4.1113V26.6761C27.5049 27.386 27.0524 28.0164 26.3799 28.2427" fill="black"/>
<path d="M20.625 18.4167V16.5833C20.625 16.0971 20.7391 15.6308 20.9423 15.287C21.1455 14.9432 21.421 14.75 21.7083 14.75H22.7917" stroke="#29F600" stroke-width="2" stroke-linecap="round" stroke-linejoin="round"/>
<path d="M28.2083 14.75H29.2917C29.579 14.75 29.8545 14.9432 30.0577 15.287C30.2609 15.6308 30.375 16.0971 30.375 16.5833V18.4167" stroke="#29F600" stroke-width="2" stroke-linecap="round" stroke-linejoin="round"/>
<path d="M30.375 27.5833V29.4167C30.375 29.9029 30.2609 30.3692 30.0577 30.713C29.8545 31.0568 29.579 31.25 29.2917 31.25H28.2083" stroke="#29F600" stroke-width="2" stroke-linecap="round" stroke-linejoin="round"/>
<path d="M22.7917 31.25H21.7083C21.421 31.25 21.1455 31.0568 20.9423 30.713C20.7391 30.3692 20.625 29.9029 20.625 29.4167V27.5833" stroke="#29F600" stroke-width="2" stroke-linecap="round" stroke-linejoin="round"/>
<path d="M22.7917 19.3333H27.125" stroke="#29F600" stroke-width="2" stroke-linecap="round" stroke-linejoin="round"/>
<path d="M22.7917 23H28.2083" stroke="#29F600" stroke-width="2" stroke-linecap="round" stroke-linejoin="round"/>
<path d="M22.7917 26.6667H26.0417" stroke="#29F600" stroke-width="2" stroke-linecap="round" stroke-linejoin="round"/>
</svg>
